<svg width="27" height="27" viewBox="0 0 27 27" fill="none" xmlns="http://www.w3.org/2000/svg">
<path d="M12.3069 13.5L5.30887 6.50362C5.23042 6.42517 5.1682 6.33204 5.12574 6.22954C5.08328 6.12705 5.06143 6.01719 5.06143 5.90625C5.06143 5.7953 5.08328 5.68545 5.12574 5.58295C5.1682 5.48045 5.23042 5.38732 5.30887 5.30887C5.38732 5.23042 5.48045 5.1682 5.58295 5.12574C5.68545 5.08328 5.7953 5.06143 5.90625 5.06143C6.01719 5.06143 6.12705 5.08328 6.22954 5.12574C6.33204 5.1682 6.42517 5.23042 6.50362 5.30887L13.5 12.3069L20.4964 5.30887C20.6548 5.15044 20.8697 5.06143 21.0937 5.06143C21.3178 5.06143 21.5327 5.15044 21.6911 5.30887C21.8496 5.46731 21.9386 5.68219 21.9386 5.90625C21.9386 6.13031 21.8496 6.34519 21.6911 6.50362L14.6931 13.5L21.6911 20.4964C21.8496 20.6548 21.9386 20.8697 21.9386 21.0937C21.9386 21.3178 21.8496 21.5327 21.6911 21.6911C21.5327 21.8496 21.3178 21.9386 21.0937 21.9386C20.8697 21.9386 20.6548 21.8496 20.4964 21.6911L13.5 14.6931L6.50362 21.6911C6.34519 21.8496 6.13031 21.9386 5.90625 21.9386C5.68219 21.9386 5.46731 21.8496 5.30887 21.6911C5.15044 21.5327 5.06143 21.3178 5.06143 21.0937C5.06143 20.8697 5.15044 20.6548 5.30887 20.4964L12.3069 13.5Z" fill="black"/>
</svg>
