<svg width="34" height="21" viewBox="0 0 34 21" fill="none" xmlns="http://www.w3.org/2000/svg">
<path d="M2 12C8 -1.33333 26 -1.33333 32 12" stroke="black" stroke-opacity="0.5" stroke-width="3" stroke-linecap="round" stroke-linejoin="round"/>
<path d="M17 18.6667C16.3434 18.6667 15.6932 18.5373 15.0866 18.2861C14.48 18.0348 13.9288 17.6665 13.4645 17.2022C13.0002 16.7379 12.6319 16.1867 12.3806 15.5801C12.1293 14.9734 12 14.3233 12 13.6667C12 13.01 12.1293 12.3599 12.3806 11.7532C12.6319 11.1466 13.0002 10.5954 13.4645 10.1311C13.9288 9.66683 14.48 9.29853 15.0866 9.04726C15.6932 8.79598 16.3434 8.66666 17 8.66666C18.3261 8.66666 19.5979 9.19344 20.5355 10.1311C21.4732 11.0688 22 12.3406 22 13.6667C22 14.9927 21.4732 16.2645 20.5355 17.2022C19.5979 18.1399 18.3261 18.6667 17 18.6667Z" stroke="black" stroke-opacity="0.5" stroke-width="3" stroke-linecap="round" stroke-linejoin="round"/>
</svg>
