<svg width="21" height="27" viewBox="0 0 21 27" fill="none" xmlns="http://www.w3.org/2000/svg">
<path id="Vector" d="M10.5 20.5714C11.1962 20.5714 11.8639 20.3005 12.3562 19.8183C12.8484 19.336 13.125 18.682 13.125 18C13.125 17.318 12.8484 16.664 12.3562 16.1817C11.8639 15.6995 11.1962 15.4286 10.5 15.4286C9.80381 15.4286 9.13613 15.6995 8.64385 16.1817C8.15156 16.664 7.875 17.318 7.875 18C7.875 18.682 8.15156 19.336 8.64385 19.8183C9.13613 20.3005 9.80381 20.5714 10.5 20.5714ZM18.375 9C19.0712 9 19.7389 9.27092 20.2312 9.75315C20.7234 10.2354 21 10.8894 21 11.5714V24.4286C21 25.1106 20.7234 25.7646 20.2312 26.2468C19.7389 26.7291 19.0712 27 18.375 27H2.625C1.92881 27 1.26113 26.7291 0.768845 26.2468C0.276562 25.7646 0 25.1106 0 24.4286V11.5714C0 10.8894 0.276562 10.2354 0.768845 9.75315C1.26113 9.27092 1.92881 9 2.625 9H3.9375V6.42857C3.9375 4.72361 4.6289 3.08848 5.85961 1.88288C7.09032 0.677294 8.75952 0 10.5 0C11.3618 0 12.2152 0.16628 13.0114 0.489346C13.8076 0.812412 14.531 1.28594 15.1404 1.88288C15.7498 2.47983 16.2332 3.18851 16.563 3.96846C16.8928 4.74841 17.0625 5.58436 17.0625 6.42857V9H18.375ZM10.5 2.57143C9.45571 2.57143 8.45419 2.97781 7.71577 3.70116C6.97734 4.42451 6.5625 5.40559 6.5625 6.42857V9H14.4375V6.42857C14.4375 5.40559 14.0227 4.42451 13.2842 3.70116C12.5458 2.97781 11.5443 2.57143 10.5 2.57143Z" fill="black" fill-opacity="0.5"/>
</svg>
