<svg width="26" height="25" viewBox="0 0 26 25" fill="none" xmlns="http://www.w3.org/2000/svg">
<path id="Vector" d="M13 12.5C11.2125 12.5 9.68229 11.888 8.40937 10.6641C7.13646 9.4401 6.5 7.96875 6.5 6.25C6.5 4.53125 7.13646 3.0599 8.40937 1.83594C9.68229 0.611979 11.2125 0 13 0C14.7875 0 16.3177 0.611979 17.5906 1.83594C18.8635 3.0599 19.5 4.53125 19.5 6.25C19.5 7.96875 18.8635 9.4401 17.5906 10.6641C16.3177 11.888 14.7875 12.5 13 12.5ZM0 25V20.625C0 19.7396 0.23725 18.926 0.71175 18.1844C1.18625 17.4427 1.81567 16.876 2.6 16.4844C4.27917 15.6771 5.98542 15.0719 7.71875 14.6687C9.45208 14.2656 11.2125 14.0635 13 14.0625C14.7875 14.0625 16.5479 14.2646 18.2812 14.6687C20.0146 15.0729 21.7208 15.6781 23.4 16.4844C24.1854 16.875 24.8154 17.4417 25.2899 18.1844C25.7644 18.9271 26.0011 19.7406 26 20.625V25H0Z" fill="black" fill-opacity="0.5"/>
</svg>
