<svg width="29" height="29" viewBox="0 0 29 29" fill="none" xmlns="http://www.w3.org/2000/svg">
<path d="M27.6485 4.58228L23.9004 0.837622C23.636 0.572059 23.3217 0.361353 22.9756 0.217607C22.6296 0.0738619 22.2585 -8.98142e-05 21.8837 8.186e-08C21.12 8.186e-08 20.4021 0.299151 19.8636 0.837622L15.8303 4.87087C15.5648 5.13527 15.3541 5.44954 15.2103 5.79562C15.0666 6.14169 14.9926 6.51276 14.9927 6.8875C14.9927 7.65121 15.2919 8.36917 15.8303 8.90765L18.7796 11.8569C18.0893 13.3786 17.1294 14.7629 15.9465 15.943C14.7665 17.1288 13.3823 18.0921 11.8604 18.7866L8.91117 15.8374C8.64677 15.5718 8.3325 15.3611 7.98643 15.2174C7.64035 15.0736 7.26928 14.9997 6.89454 14.9998C6.13083 14.9998 5.41287 15.2989 4.8744 15.8374L0.837623 19.8671C0.571735 20.132 0.360847 20.4468 0.217095 20.7935C0.0733432 21.1402 -0.000436123 21.5119 1.93933e-06 21.8873C1.93933e-06 22.651 0.299153 23.3689 0.837623 23.9074L4.57876 27.6485C5.4375 28.5108 6.62355 29 7.84126 29C8.09818 29 8.34454 28.9789 8.58738 28.9366C13.3316 28.1553 18.037 25.6319 21.8345 21.838C25.6284 18.0476 28.1483 13.3456 28.9402 8.58738C29.1795 7.13386 28.6973 5.63811 27.6485 4.58228Z" fill="black" fill-opacity="0.5"/>
</svg>
